<?xml version="1.0" encoding="utf-8"?><svg viewBox="0 0 70 38" xmlns="http://www.w3.org/2000/svg" xmlns:xlink="http://www.w3.org/1999/xlink"><style>:root>svg{display:none}:root>svg:target{display:block}</style><svg fill="none" viewBox="0 0 15 15" id="close-button" xmlns="http://www.w3.org/2000/svg"><path d="M1 1l6.5 6.5M14 14L7.5 7.5m0 0L14 1 1 14" stroke="#011C40" stroke-width="2"/></svg><svg fill="none" viewBox="0 0 70 38" id="logo-desktop" xmlns="http://www.w3.org/2000/svg"><path fill-rule="evenodd" clip-rule="evenodd" d="M.904 31.125l13.769-18.582 3.766 2.013L27.404 0l5.585 6.659 2.078-1.704 8.054 10.22 5.716-6.813 15.977 22.763L49.42 11.769l-2.338 8.13 2.143 6.426-13.769-18.97-.15 6.473 7.814 17.297-14.614-26.79 4.222 14.48-5.91-14.092-3.247 9.369.649-6.117L16.1 30.04l.974-9.291-3.377-3.716L.904 31.125z" fill="#F9FBFD"/><path fill-rule="evenodd" clip-rule="evenodd" d="M69.441 34.031C47.641 16.428 13.71 40.63 0 31.296c15.072 13.226 50.302-9.132 69.441 2.735z" fill="#F9FBFD"/><path fill-rule="evenodd" clip-rule="evenodd" d="M70 35.416c-17.104-10.899-42.543 4.268-55.581.756 14.128 6.856 40.43-8.336 55.581-.756z" fill="#F9FBFD"/></svg><svg fill="none" viewBox="0 0 42 22" id="logo-menu" xmlns="http://www.w3.org/2000/svg"><path fill-rule="evenodd" clip-rule="evenodd" d="M.542 18.02L8.804 7.262l2.26 1.165L16.442 0l3.35 3.855 1.248-.986 4.832 5.917 3.43-3.945 9.586 13.179-9.236-11.206-1.403 4.706 1.286 3.72-8.261-10.982-.09 3.748 4.688 10.014-8.768-15.51 2.533 8.383-3.546-8.159-1.949 5.424.39-3.541L9.66 17.392l.584-5.379L8.22 9.862.542 18.02z" fill="#011C40"/><path fill-rule="evenodd" clip-rule="evenodd" d="M41.665 19.702C28.585 9.511 8.225 23.522 0 18.12c9.043 7.657 30.181-5.287 41.665 1.583z" fill="#011C40"/><path fill-rule="evenodd" clip-rule="evenodd" d="M42 20.504c-10.263-6.31-25.526 2.47-33.349.438 8.477 3.97 24.258-4.826 33.349-.438z" fill="#011C40"/></svg><svg fill="none" viewBox="0 0 42 22" id="logo-mobile" xmlns="http://www.w3.org/2000/svg"><path fill-rule="evenodd" clip-rule="evenodd" d="M.542 18.02L8.804 7.262l2.26 1.165L16.442 0l3.35 3.855 1.248-.986 4.832 5.917 3.43-3.945 9.586 13.179-9.236-11.206-1.403 4.706 1.286 3.72-8.261-10.982-.09 3.748 4.688 10.014-8.768-15.51 2.533 8.383-3.546-8.159-1.949 5.424.39-3.541L9.66 17.392l.584-5.379L8.22 9.862.542 18.02z" fill="#F9FBFD"/><path fill-rule="evenodd" clip-rule="evenodd" d="M41.665 19.702C28.585 9.511 8.225 23.522 0 18.12c9.043 7.657 30.181-5.287 41.665 1.583z" fill="#F9FBFD"/><path fill-rule="evenodd" clip-rule="evenodd" d="M42 20.504c-10.263-6.31-25.526 2.47-33.349.438 8.477 3.97 24.258-4.826 33.349-.438z" fill="#F9FBFD"/></svg><svg fill="none" viewBox="0 0 38 20" id="logo-tablet" xmlns="http://www.w3.org/2000/svg"><path fill-rule="evenodd" clip-rule="evenodd" d="M.49 16.382l7.475-9.78L10.01 7.66 14.876 0l3.032 3.505 1.128-.897 4.372 5.38L26.511 4.4l8.673 11.98-8.356-10.187-1.27 4.279 1.164 3.382-7.475-9.984-.08 3.407 4.241 9.104-7.933-14.1 2.292 7.62-3.209-7.416-1.762 4.93.352-3.219L8.74 15.811l.528-4.89-1.833-1.956L.49 16.382z" fill="#F9FBFD"/><path fill-rule="evenodd" clip-rule="evenodd" d="M37.697 17.911C25.862 8.646 7.442 21.384 0 16.471c8.182 6.961 27.307-4.806 37.697 1.44z" fill="#F9FBFD"/><path fill-rule="evenodd" clip-rule="evenodd" d="M38 18.64c-9.285-5.736-23.095 2.246-30.173.398 7.67 3.608 21.948-4.387 30.173-.398z" fill="#F9FBFD"/></svg></svg>