<?xml version="1.0" encoding="utf-8"?><svg viewBox="0 0 70 38" xmlns="http://www.w3.org/2000/svg" xmlns:xlink="http://www.w3.org/1999/xlink"><style>:root>svg{display:none}:root>svg:target{display:block}</style><svg fill="none" viewBox="0 0 42 15" id="boat-icon" xmlns="http://www.w3.org/2000/svg"><path d="M39.555 12.056L1.573 8.068c-.292-.03-.489.265-.338.5C3.663 12.34 9.41 15 16.1 15h22.658c.154 0 .29-.093.335-.23l.757-2.294c.065-.195-.077-.397-.295-.42zM41.89 5.518a.707.707 0 00-.497-.295l-10.5-1.305c-.378-.046-.735.204-.787.56-.051.357.219.686.602.734l1.188.147c.174.022.304.16.304.323V6.69c0 .194-.18.345-.387.324l-2.8-.28a.335.335 0 01-.313-.323V3.556c0-.064.02-.127.059-.18l1.224-1.71a.614.614 0 00.042-.656.706.706 0 00-.592-.358L14.733 0a.746.746 0 00-.603.273s-2.797 3.662-3.41 4.469a.359.359 0 01-.323.134l-9.623-.96a.735.735 0 00-.542.164.636.636 0 00-.232.485c0 .628.088 1.244.253 1.841a.35.35 0 00.304.243l39.548 4.152a.351.351 0 00.374-.228l1.49-4.512a.617.617 0 00-.08-.543zM20.2 1.905l-.545 3.562a.342.342 0 01-.378.279c-1.366-.129-6.497-.631-6.497-.631-.266-.027-.403-.31-.248-.514l2.405-3.137a.36.36 0 01.301-.136l4.633.205c.206.01.359.182.33.372zm7.59.476l-.431.6a.31.31 0 00-.059.18v3.04c0 .195-.18.346-.387.325l-5.555-.554c-.197-.02-.338-.188-.31-.37l.567-3.694c.025-.167.182-.288.363-.28l5.537.246c.272.012.426.295.274.507zM36.4 7.11c0 .193-.18.345-.387.324 0 0-1.453-.153-2.104-.224a.334.334 0 01-.309-.324v-.943c0-.197.186-.35.396-.324l2.1.261c.174.022.304.16.304.324v.906zm3.866-.328l-.26.786a.351.351 0 01-.371.228l-1.523-.152a.336.336 0 01-.312-.324v-.855c0-.197.186-.35.396-.323l1.782.22c.214.028.352.227.288.42z" fill="#011C40"/></svg><svg fill="none" viewBox="0 0 38 21" id="check-icon" xmlns="http://www.w3.org/2000/svg"><path d="M28.753 2.215L26.44 0 16.073 9.933l2.314 2.215 10.366-9.933zM35.694 0L18.38 16.57l-6.819-6.528-2.313 2.215L18.379 21 38 2.215 35.694 0zM0 12.257L9.132 21l2.314-2.215-9.132-8.743L0 12.257z" fill="#011C40"/></svg><svg fill="none" viewBox="0 0 15 15" id="close-button" xmlns="http://www.w3.org/2000/svg"><path d="M1 1l6.5 6.5M14 14L7.5 7.5m0 0L14 1 1 14" stroke="#011C40" stroke-width="2"/></svg><svg fill="none" viewBox="0 0 70 38" id="logo-desktop" xmlns="http://www.w3.org/2000/svg"><path fill-rule="evenodd" clip-rule="evenodd" d="M.904 31.125l13.769-18.582 3.766 2.013L27.404 0l5.585 6.659 2.078-1.704 8.054 10.22 5.716-6.813 15.977 22.763L49.42 11.769l-2.338 8.13 2.143 6.426-13.769-18.97-.15 6.473 7.814 17.297-14.614-26.79 4.222 14.48-5.91-14.092-3.247 9.369.649-6.117L16.1 30.04l.974-9.291-3.377-3.716L.904 31.125z" fill="#F9FBFD"/><path fill-rule="evenodd" clip-rule="evenodd" d="M69.441 34.031C47.641 16.428 13.71 40.63 0 31.296c15.072 13.226 50.302-9.132 69.441 2.735z" fill="#F9FBFD"/><path fill-rule="evenodd" clip-rule="evenodd" d="M70 35.416c-17.104-10.899-42.543 4.268-55.581.756 14.128 6.856 40.43-8.336 55.581-.756z" fill="#F9FBFD"/></svg><svg fill="none" viewBox="0 0 42 22" id="logo-menu" xmlns="http://www.w3.org/2000/svg"><path fill-rule="evenodd" clip-rule="evenodd" d="M.542 18.02L8.804 7.262l2.26 1.165L16.442 0l3.35 3.855 1.248-.986 4.832 5.917 3.43-3.945 9.586 13.179-9.236-11.206-1.403 4.706 1.286 3.72-8.261-10.982-.09 3.748 4.688 10.014-8.768-15.51 2.533 8.383-3.546-8.159-1.949 5.424.39-3.541L9.66 17.392l.584-5.379L8.22 9.862.542 18.02z" fill="#011C40"/><path fill-rule="evenodd" clip-rule="evenodd" d="M41.665 19.702C28.585 9.511 8.225 23.522 0 18.12c9.043 7.657 30.181-5.287 41.665 1.583z" fill="#011C40"/><path fill-rule="evenodd" clip-rule="evenodd" d="M42 20.504c-10.263-6.31-25.526 2.47-33.349.438 8.477 3.97 24.258-4.826 33.349-.438z" fill="#011C40"/></svg><svg fill="none" viewBox="0 0 42 22" id="logo-mobile" xmlns="http://www.w3.org/2000/svg"><path fill-rule="evenodd" clip-rule="evenodd" d="M.542 18.02L8.804 7.262l2.26 1.165L16.442 0l3.35 3.855 1.248-.986 4.832 5.917 3.43-3.945 9.586 13.179-9.236-11.206-1.403 4.706 1.286 3.72-8.261-10.982-.09 3.748 4.688 10.014-8.768-15.51 2.533 8.383-3.546-8.159-1.949 5.424.39-3.541L9.66 17.392l.584-5.379L8.22 9.862.542 18.02z" fill="#F9FBFD"/><path fill-rule="evenodd" clip-rule="evenodd" d="M41.665 19.702C28.585 9.511 8.225 23.522 0 18.12c9.043 7.657 30.181-5.287 41.665 1.583z" fill="#F9FBFD"/><path fill-rule="evenodd" clip-rule="evenodd" d="M42 20.504c-10.263-6.31-25.526 2.47-33.349.438 8.477 3.97 24.258-4.826 33.349-.438z" fill="#F9FBFD"/></svg><svg fill="none" viewBox="0 0 38 20" id="logo-tablet" xmlns="http://www.w3.org/2000/svg"><path fill-rule="evenodd" clip-rule="evenodd" d="M.49 16.382l7.475-9.78L10.01 7.66 14.876 0l3.032 3.505 1.128-.897 4.372 5.38L26.511 4.4l8.673 11.98-8.356-10.187-1.27 4.279 1.164 3.382-7.475-9.984-.08 3.407 4.241 9.104-7.933-14.1 2.292 7.62-3.209-7.416-1.762 4.93.352-3.219L8.74 15.811l.528-4.89-1.833-1.956L.49 16.382z" fill="#F9FBFD"/><path fill-rule="evenodd" clip-rule="evenodd" d="M37.697 17.911C25.862 8.646 7.442 21.384 0 16.471c8.182 6.961 27.307-4.806 37.697 1.44z" fill="#F9FBFD"/><path fill-rule="evenodd" clip-rule="evenodd" d="M38 18.64c-9.285-5.736-23.095 2.246-30.173.398 7.67 3.608 21.948-4.387 30.173-.398z" fill="#F9FBFD"/></svg><svg fill="none" viewBox="0 0 27 32" id="ship-icon" xmlns="http://www.w3.org/2000/svg"><path d="M4.405 16.396l8.811-6.46a.6.6 0 01.655 0l8.854 6.46V8.688c.049-1.057-.75-1.954-1.785-2.003l-.047-.002H6.237c-1.035.024-1.856.9-1.833 1.958l.001.047v7.708zM15.746 0h-4.362v5.347h4.362V0z" fill="#011C40"/><path d="M24.296 30.164L27 21.03l-3.795-2.718-.262-.134-8.941-6.37v18.801h-.48l-.83-.044V11.807L0 21.03l2.792 9.09 1.612 1.87h2.754s5.089.007 6.364 0c1.298.022 3.603 0 3.603 0h5.688l1.483-1.826z" fill="#011C40"/></svg></svg>